<svg width="22" height="20" viewBox="0 0 22 20" fill="green" xmlns="http://www.w3.org/2000/svg">
<path d="M11.8649 0.996222C11.4796 0.332071 10.5204 0.332069 10.1351 0.996222L7.42101 5.67353C7.23064 6.00161 6.90159 6.22551 6.52653 6.28215L1.44021 7.05038C0.58593 7.17941 0.28627 8.25802 0.951576 8.80922L4.74067 11.9484C5.09141 12.239 5.25633 12.6974 5.17113 13.1448L4.17996 18.35C4.02327 19.1728 4.88706 19.8121 5.62821 19.4219L10.4176 16.9C10.7821 16.7081 11.2178 16.7081 11.5824 16.9L16.3718 19.4219C17.1129 19.8121 17.9767 19.1728 17.82 18.35L16.8289 13.1448C16.7437 12.6974 16.9086 12.239 17.2593 11.9484L21.0484 8.80922C21.7137 8.25802 21.4141 7.17941 20.5598 7.05038L15.4735 6.28215C15.0984 6.22551 14.7694 6.00161 14.579 5.67353L11.8649 0.996222Z" fill="black"/>
</svg>
