<?xml version="1.0" encoding="utf-8"?>
<!-- Generator: Adobe Illustrator 23.0.1, SVG Export Plug-In . SVG Version: 6.00 Build 0)  -->
<svg version="1.1" id="Слой_1" xmlns="http://www.w3.org/2000/svg" xmlns:xlink="http://www.w3.org/1999/xlink" x="0px" y="0px"
	 viewBox="0 0 354 121" style="enable-background:new 0 0 354 121;" xml:space="preserve">
<style type="text/css">
	.st0{fill:#1E1E1E;}
	.st1{fill:#FFBF0B;}
</style>
<path class="st0" d="M129.8,87.2l2.6-0.5V68.8l-2.6-0.5v-3h18.9v6.3h-3.8l-0.2-2.5h-7.2v17.5l2.7,0.5v3h-10.3L129.8,87.2L129.8,87.2
	z"/>
<path class="st0" d="M165.9,65.3c2.4-0.2,4.8,0.6,6.7,2.2c1.6,1.5,2.5,3.6,2.5,5.8c0.1,2.2-0.8,4.3-2.5,5.7
	c-1.9,1.5-4.3,2.3-6.7,2.2h-4.2v5.5l2.7,0.5v3H154v-3l2.6-0.5V68.8l-2.6-0.5v-3H165.9z M161.7,77.3h4.2c1.2,0.1,2.3-0.3,3.2-1.1
	c0.8-0.8,1.2-1.8,1.1-2.9c0-1.1-0.4-2.2-1.1-3c-0.8-0.8-2-1.3-3.2-1.2h-4.2V77.3z"/>
<path class="st0" d="M202.9,68.3l-2.4,0.3l-7.1,16.8c-0.6,1.4-1.5,2.7-2.6,3.8c-1.2,0.9-2.7,1.4-4.2,1.3h-1c-0.3,0-0.5,0-0.8-0.1
	v-3.8c0.2,0,0.5,0,0.7,0.1h0.7c0.7,0.1,1.4-0.2,2-0.6c0.5-0.5,0.9-1.1,1.1-1.8l0.4-0.9l-7.1-14.7l-2.6-0.4v-3h9.1v3l-1.2,0.2
	l3.6,7.8l0.4,1.3h0.1l3.4-9.1l-1.5-0.3v-3h9.1v3.1L202.9,68.3z"/>
<path class="st0" d="M217.1,75.6c1.1,0.1,2.1-0.2,3-0.9c0.7-0.7,1-1.6,1-2.6c0-0.9-0.4-1.8-1.1-2.4c-1-0.7-2.2-1-3.4-0.9
	c-0.9,0-1.8,0.1-2.6,0.4c-0.7,0.3-1.3,0.7-1.8,1.2l-0.5,3.1H208v-4.7c1.1-1.2,2.3-2.2,3.8-2.8c1.6-0.7,3.4-1.1,5.2-1.1
	c2.4-0.1,4.7,0.5,6.7,1.8c1.7,1.3,2.6,3.2,2.5,5.3c0,1.1-0.3,2.2-1,3.1c-0.7,1-1.7,1.7-2.8,2.2c1.2,0.4,2.3,1.2,3.1,2.2
	c0.7,1.1,1.1,2.3,1.1,3.6c0.1,2.1-0.9,4.1-2.6,5.4c-4.1,2.5-9.3,2.5-13.4,0.1c-1.8-1.1-2.8-3.2-2.6-5.3v-0.1h4.9
	c0,1,0.4,1.9,1.2,2.4c0.9,0.7,2,1.1,3.1,1c1.2,0.1,2.4-0.3,3.3-1c0.8-0.6,1.2-1.6,1.2-2.6c0.1-1.1-0.3-2.1-1.1-2.9
	c-0.9-0.7-2.1-1-3.2-0.9h-3v-3.7L217.1,75.6L217.1,75.6z"/>
<path class="st0" d="M246.5,87.2l2.6-0.5v-6.1c-0.8,0.2-1.7,0.3-2.5,0.4c-0.8,0.1-1.7,0.1-2.5,0.1c-2.5,0.1-5-0.6-7.1-2
	c-1.7-1.3-2.5-3.4-2.5-6.1v-4.2l-2.7-0.5v-3h10.3v3l-2.7,0.5V73c-0.1,1.2,0.3,2.4,1.1,3.3c1,0.7,2.3,1,3.5,0.9c0.8,0,1.7,0,2.5-0.1
	c0.9-0.1,1.7-0.2,2.6-0.4v-7.9l-2.6-0.5v-3h10.3v3l-2.7,0.5v17.9l2.7,0.5v3h-10.3V87.2z"/>
<path class="st0" d="M272.6,65.3v3l-2.7,0.5v11.5h0.1l10-10.2v-1.4l-2.6-0.5v-3h10.2v3l-2.6,0.5v17.9l2.6,0.5v3h-10.3v-3l2.6-0.5
	V75.4h-0.1l-10,10.2v1.1l2.7,0.5v3h-10.3v-3l2.7-0.5V68.8l-2.7-0.5v-3H272.6z"/>
<path class="st0" d="M293,87.2l2.6-0.5V68.8l-2.6-0.5v-3h10.2v3l-2.5,0.5v6.6h2.2l4.7-6.7c0.7-1.1,1.6-2.1,2.6-2.9
	c0.9-0.5,1.9-0.8,3-0.8c0.5,0,1.1,0.1,1.6,0.2c0.5,0.2,1,0.4,1.4,0.6l-0.8,3.7c-0.4-0.1-0.6-0.1-0.7-0.2h-0.5c-0.5,0-1,0.1-1.5,0.4
	c-0.6,0.5-1.2,1-1.6,1.7l-3.9,5.3l6.9,9.9l2.6,0.4v3h-9.9v-3l1.4-0.2l-4.6-7h-2.9v6.7l2.5,0.5v3H293V87.2z"/>
<path class="st0" d="M332.1,65.3v3l-2.7,0.5v11.5h0.1l10-10.2v-1.4l-2.6-0.5v-3h10.2v3l-2.6,0.5v17.9l2.6,0.5v3h-10.3v-3l2.6-0.5
	V75.4h-0.1l-10,10.2v1.1l2.7,0.5v3h-10.3v-3l2.7-0.5V68.8l-2.7-0.5v-3H332.1z"/>
<path class="st0" d="M134.1,36.3v9.2h-2.9V22.7h8.6c2.1-0.1,4.1,0.5,5.7,1.8c1.4,1.3,2.1,3.1,2,5c0.1,1.9-0.6,3.7-2,5
	c-1.6,1.3-3.6,1.9-5.7,1.8H134.1z M134.1,34h5.7c1.3,0.1,2.6-0.3,3.6-1.2c0.8-0.9,1.2-2,1.2-3.2c0-1.2-0.4-2.3-1.2-3.2
	c-1-0.9-2.3-1.4-3.6-1.3h-5.7V34z"/>
<path class="st0" d="M168.4,39.4h-9.6l-2.2,6.1h-3l8.8-22.8h2.5l8.6,22.8h-3L168.4,39.4z M159.7,37.1h7.9l-3.9-10.8L159.7,37.1z"/>
<path class="st0" d="M190.1,32.7c1.7,0,3-0.3,3.7-1c0.8-0.7,1.3-1.8,1.2-2.9c0.1-1.1-0.4-2.2-1.3-2.9c-1.1-0.8-2.4-1.2-3.8-1.1
	c-1.2,0-2.4,0.4-3.4,1.1c-0.9,0.7-1.4,1.7-1.4,2.8h-2.9c-0.1-1.8,0.8-3.5,2.2-4.6c1.6-1.2,3.5-1.8,5.5-1.7c2.1-0.1,4.2,0.4,5.9,1.6
	c1.4,1.2,2.2,3,2.1,4.8c0,1.1-0.3,2.1-1,2.9c-0.7,0.9-1.7,1.6-2.8,2c1.2,0.3,2.3,1,3,2c0.7,1,1.1,2.1,1,3.3c0.1,1.9-0.8,3.7-2.3,4.9
	c-1.8,1.2-3.9,1.8-6.1,1.7c-2,0-4-0.6-5.7-1.7c-1.6-1.2-2.5-3-2.3-5h2.9c0,1.2,0.5,2.3,1.4,3.1c1,0.8,2.4,1.3,3.7,1.2
	c1.4,0.1,2.9-0.3,4-1.2c0.9-0.7,1.5-1.9,1.4-3.1c0.1-1.2-0.4-2.4-1.3-3.2c-1.2-0.8-2.5-1.1-3.9-1h-2.6v-2.3h2.8L190.1,32.7z"/>
<path class="st0" d="M211.6,45.5h-3v-3.1h3V45.5z M211.5,38h-2.9V22.7h2.9V38z"/>
<polygon class="st1" points="54.8,72.5 24.4,54.3 24.2,79.1 54.5,97 85.2,79.6 85.5,56 "/>
<polygon class="st0" points="21,35.8 55.2,16.5 90.3,37.1 97.3,33.3 55.3,8.6 14.3,31.8 "/>
<polygon class="st0" points="93.7,47 93.3,83.8 54.4,105.8 15.9,83.2 16.3,45 9.5,40.9 9.1,87 54.4,113.7 100.1,87.8 100.5,43.3 "/>
</svg>
